<svg width="336" height="63" viewBox="0 0 336 63" fill="none" xmlns="http://www.w3.org/2000/svg">
<path fill-rule="evenodd" clip-rule="evenodd" d="M32.5392 42.8723L18.2894 62.2909H9.70932C4.34701 62.2909 0 57.9439 0 52.5816C0 47.2193 4.34701 42.8723 9.70932 42.8723H32.5392ZM48.2695 21.4362L34.0197 40.8548H9.70932C4.34701 40.8548 0 36.5078 0 31.1455C0 25.7832 4.34701 21.4362 9.70932 21.4362H48.2695ZM63.9998 0L49.75 19.4186H9.70932C4.34701 19.4186 0 15.0716 0 9.70932C0 4.34701 4.34701 0 9.70932 0H63.9998Z" fill="url(#paint0_linear_1404_155)"/>
<path d="M75.7139 51L82.332 12.3457H104.533L103.426 18.8057H87.7637L86.1553 28.0869H101.501L100.394 34.5469H85.0479L82.2266 51H75.7139ZM103.742 39.3721C103.742 34.7842 104.779 30.8818 106.854 27.665C109.156 24.1318 112.487 22.3652 116.847 22.3652C120.116 22.3652 122.718 23.4727 124.651 25.6875C126.603 27.9023 127.578 30.9873 127.578 34.9424C127.578 39.583 126.365 43.5293 123.939 46.7812C121.531 50.0156 118.376 51.6328 114.474 51.6328C111.292 51.6328 108.708 50.5342 106.722 48.3369C104.735 46.1396 103.742 43.1514 103.742 39.3721ZM121.435 33.9668C121.435 32.1211 120.995 30.6709 120.116 29.6162C119.255 28.5615 118.156 28.0342 116.82 28.0342C115.695 28.0342 114.641 28.4209 113.656 29.1943C112.672 29.9678 111.811 31.3125 111.072 33.2285C110.334 35.1445 109.965 37.1309 109.965 39.1875C109.965 41.2793 110.413 42.9053 111.31 44.0654C112.224 45.2256 113.349 45.8057 114.685 45.8057C116.372 45.8057 117.805 44.9092 118.982 43.1162C120.617 40.6553 121.435 37.6055 121.435 33.9668ZM134.328 22.998H140.129L139.206 28.4297C141.351 24.3867 143.688 22.3652 146.22 22.3652C147.099 22.3652 148.057 22.6289 149.094 23.1562L146.721 29.3525C146.158 29.1064 145.569 28.9834 144.954 28.9834C143.987 28.9834 143.082 29.3086 142.238 29.959C140.955 30.9609 139.971 32.2705 139.285 33.8877C138.6 35.5049 137.923 38.2822 137.255 42.2197L135.726 51H129.529L134.328 22.998ZM151.73 22.998H157.584L156.978 26.3994C159.263 23.71 161.653 22.3652 164.149 22.3652C167.489 22.3652 169.423 24.0088 169.95 27.2959C170.776 25.8545 171.937 24.6768 173.431 23.7627C174.925 22.8311 176.437 22.3652 177.966 22.3652C179.759 22.3652 181.183 22.9453 182.237 24.1055C183.292 25.248 183.819 26.8477 183.819 28.9043C183.819 29.8711 183.617 31.5322 183.213 33.8877L180.286 51H174.063L176.99 33.8877C177.359 31.7432 177.544 30.5303 177.544 30.249C177.544 29.4404 177.342 28.8252 176.938 28.4033C176.533 27.9639 175.979 27.7441 175.276 27.7441C173.782 27.7441 172.438 28.6758 171.242 30.5391C170.293 31.998 169.502 34.5732 168.869 38.2646L166.707 51H160.484L163.385 34.0723C163.719 32.1211 163.886 30.8643 163.886 30.3018C163.886 29.5107 163.666 28.8867 163.227 28.4297C162.805 27.9727 162.26 27.7441 161.592 27.7441C160.695 27.7441 159.764 28.1748 158.797 29.0361C157.848 29.8799 157.092 31.1191 156.529 32.7539C156.195 33.7207 155.8 35.5137 155.343 38.1328L153.128 51H146.932L151.73 22.998ZM186.562 51L193.18 12.3457H216.673L215.565 18.8057H198.611L197.108 27.5859H213.509L212.401 34.0459H196.001L194.182 44.54H212.401L211.32 51H186.562ZM224.82 30.9346L218.756 30.3018C219.477 27.7178 220.725 25.749 222.5 24.3955C224.275 23.042 226.525 22.3652 229.25 22.3652C232.027 22.3652 234.163 23.0596 235.657 24.4482C237.151 25.8193 237.898 27.6475 237.898 29.9326C237.898 30.7412 237.837 31.6025 237.714 32.5166C237.608 33.4307 237.187 35.9268 236.448 40.0049C235.833 43.3623 235.525 45.709 235.525 47.0449C235.525 48.2578 235.692 49.5762 236.026 51H230.015C229.769 49.9805 229.619 48.9258 229.566 47.8359C228.652 49.0664 227.598 50.0068 226.402 50.6572C225.225 51.3076 224.047 51.6328 222.869 51.6328C221.006 51.6328 219.441 50.8945 218.176 49.418C216.91 47.9414 216.277 45.9727 216.277 43.5117C216.277 40.6816 216.998 38.502 218.439 36.9727C219.863 35.4434 222.254 34.5205 225.611 34.2041C228.564 33.9053 230.542 33.5449 231.544 33.123C231.808 32.0508 231.939 31.1982 231.939 30.5654C231.939 29.7217 231.649 29.0449 231.069 28.5352C230.507 28.0078 229.733 27.7441 228.749 27.7441C226.604 27.7441 225.295 28.8076 224.82 30.9346ZM230.727 37.9482C230.34 38.0713 229.839 38.1855 229.224 38.291C226.323 38.7129 224.407 39.2842 223.476 40.0049C222.562 40.708 222.104 41.6572 222.104 42.8525C222.104 43.7842 222.368 44.54 222.896 45.1201C223.44 45.7002 224.126 45.9902 224.952 45.9902C225.813 45.9902 226.64 45.7529 227.431 45.2783C228.222 44.7861 228.854 44.1094 229.329 43.248C229.804 42.3691 230.208 40.9365 230.542 38.9502L230.727 37.9482ZM239.876 43.1689L245.888 42.0088C246.415 43.5908 247.083 44.6982 247.892 45.3311C248.7 45.9463 249.772 46.2539 251.108 46.2539C252.392 46.2539 253.429 45.9463 254.22 45.3311C255.011 44.7158 255.406 43.9951 255.406 43.1689C255.406 42.6064 255.239 42.1318 254.905 41.7451C254.554 41.376 253.71 40.9277 252.374 40.4004C248.665 38.9062 246.362 37.7285 245.466 36.8672C244.042 35.4785 243.33 33.668 243.33 31.4355C243.33 28.7988 244.262 26.6279 246.125 24.9229C247.988 23.2178 250.537 22.3652 253.771 22.3652C259.256 22.3652 262.438 24.7998 263.316 29.6689L257.595 30.8818C256.927 28.667 255.327 27.5596 252.796 27.5596C251.601 27.5596 250.695 27.8057 250.08 28.2979C249.465 28.79 249.157 29.4141 249.157 30.1699C249.157 30.8027 249.395 31.3389 249.869 31.7783C250.221 32.1123 251.434 32.6484 253.508 33.3867C256.479 34.4414 258.474 35.4697 259.493 36.4717C260.987 37.9307 261.734 39.7061 261.734 41.7979C261.734 44.6279 260.776 46.9746 258.86 48.8379C256.944 50.7012 254.404 51.6328 251.24 51.6328C245.018 51.6328 241.229 48.8115 239.876 43.1689ZM267.245 22.998H273.415L274.971 36.9463C275.357 40.5146 275.577 43.0283 275.63 44.4873C276.438 41.6045 277.546 38.5811 278.952 35.417L284.463 22.998H291.028L276.843 53.7422C275.507 56.625 274.479 58.5498 273.758 59.5166C273.037 60.501 272.22 61.2217 271.306 61.6787C270.409 62.1357 269.39 62.3643 268.247 62.3643C266.946 62.3643 265.47 62.083 263.817 61.5205L264.371 55.8779C265.109 56.1416 265.83 56.2734 266.533 56.2734C268.432 56.2734 270.005 54.5156 271.253 51L267.245 22.998Z" fill="white"/>
<defs>
<linearGradient id="paint0_linear_1404_155" x1="32.0281" y1="-3.65676" x2="32" y2="62.2909" gradientUnits="userSpaceOnUse">
<stop offset="0.0159351" stop-color="#7581F1"/>
<stop offset="1" stop-color="#FE84C6"/>
</linearGradient>
</defs>
</svg>
